P2
# Created by F# saveAsPgm
16 16
3
1 1 1 1 1 1 1 1 1 1 1 1 1 1 1 1 
1 1 1 1 1 0 1 1 1 1 3 1 1 1 1 1 
1 1 1 1 1 1 1 1 1 1 1 1 1 1 1 1 
1 1 0 0 1 1 1 1 1 0 1 0 0 0 1 1 
1 0 0 0 1 0 0 1 1 1 1 0 1 1 1 0 
1 0 0 1 1 1 0 1 0 1 1 1 1 2 1 0 
1 1 1 1 0 1 1 1 0 0 1 0 1 1 1 1 
1 1 1 0 0 0 1 1 1 0 1 0 0 0 1 1 
1 1 1 1 0 0 0 0 1 1 1 1 1 1 1 1 
1 1 1 1 1 0 0 1 1 1 1 0 1 0 0 1 
1 1 1 1 1 0 0 0 0 1 1 0 0 0 1 1 
1 1 1 1 0 0 0 0 0 1 1 1 1 1 1 1 
1 1 1 1 1 0 0 0 1 1 1 1 1 1 1 1 
1 1 1 1 1 1 1 1 1 1 0 0 1 1 1 1 
1 1 1 1 1 1 1 1 1 1 1 1 1 1 1 1 
1 1 1 1 1 1 1 1 1 1 1 1 1 1 1 1 
